<svg width="28" height="28" viewBox="0 0 28 28" fill="none" xmlns="http://www.w3.org/2000/svg">
<path d="M27.125 0H14C13.547 0 13.1797 0.367281 13.1797 0.820312V8.85938H0.875C0.421969 8.85938 0.0546875 9.22666 0.0546875 9.67969V27.1797C0.0546875 27.5115 0.254516 27.8106 0.561094 27.9375C0.662539 27.9796 0.76918 28 0.874836 28C1.08828 28 1.29812 27.9167 1.45502 27.7597L4.49602 24.7188H14C14.453 24.7188 14.8203 24.3515 14.8203 23.8984V15.8594H23.504L26.5449 18.9003C26.7018 19.0573 26.9117 19.1406 27.1251 19.1406C27.2308 19.1406 27.3374 19.1202 27.4389 19.0782C27.7454 18.9512 27.9453 18.652 27.9453 18.3203V0.820312C27.9453 0.367281 27.578 0 27.125 0ZM13.1797 23.0781H4.15625C3.93865 23.0781 3.73002 23.1646 3.57623 23.3184L1.69531 25.1993V10.5H13.1797V23.0781ZM26.3047 16.3399L24.4238 14.459C24.27 14.3052 24.0613 14.2188 23.8437 14.2188H14.8203V1.64062H26.3047V16.3399Z" fill="white"/>
<path d="M17.0078 7.10938H17.6082C17.779 8.4146 18.3514 9.5952 19.1971 10.5226C18.6125 10.7883 17.9641 10.9375 17.2812 10.9375C16.8282 10.9375 16.4609 11.3048 16.4609 11.7578C16.4609 12.2108 16.8282 12.5781 17.2812 12.5781C18.4828 12.5781 19.6066 12.2392 20.5625 11.6522C21.5184 12.2392 22.6422 12.5781 23.8438 12.5781C24.2968 12.5781 24.6641 12.2108 24.6641 11.7578C24.6641 11.3048 24.2968 10.9375 23.8438 10.9375C23.1609 10.9375 22.5125 10.7883 21.9279 10.5226C22.7736 9.5952 23.3461 8.4146 23.5168 7.10938H24.1172C24.5702 7.10938 24.9375 6.74209 24.9375 6.28906C24.9375 5.83603 24.5702 5.46875 24.1172 5.46875H21.3828V4.10156C21.3828 3.64853 21.0155 3.28125 20.5625 3.28125C20.1095 3.28125 19.7422 3.64853 19.7422 4.10156V5.46875H17.0078C16.5548 5.46875 16.1875 5.83603 16.1875 6.28906C16.1875 6.74209 16.5548 7.10938 17.0078 7.10938ZM20.5625 9.57841C19.9025 8.92002 19.4401 8.0646 19.2692 7.10938H21.8557C21.6849 8.0646 21.2225 8.92008 20.5625 9.57841Z" fill="white"/>
<path d="M8.37861 12.7788C8.37571 12.7712 8.37282 12.7637 8.3697 12.7562C8.21575 12.3821 7.85509 12.1406 7.45062 12.1406C7.45029 12.1406 7.44985 12.1406 7.44947 12.1406C7.04467 12.1411 6.68401 12.3834 6.53072 12.7582C6.52815 12.7643 6.52569 12.7706 6.52334 12.7768L3.64853 20.3252C3.48731 20.7486 3.69982 21.2225 4.12316 21.3837C4.54677 21.5451 5.02047 21.3324 5.18169 20.9091L5.69646 19.5575H9.18318L9.69237 20.9068C9.8164 21.2353 10.1285 21.4377 10.46 21.4377C10.5562 21.4377 10.6542 21.4207 10.7495 21.3847C11.1734 21.2247 11.3873 20.7514 11.2273 20.3276L8.37861 12.7788ZM6.32132 17.9169L7.44783 14.9591L8.56406 17.9169H6.32132Z" fill="white"/>
</svg>
